<svg id="visual" viewBox="0 0 960 300" width="960" height="300" xmlns="http://www.w3.org/2000/svg" xmlns:xlink="http://www.w3.org/1999/xlink" version="1.1"><rect x="0" y="0" width="960" height="300" fill="#dd3f31"></rect><path d="M0 223L14.5 223.3C29 223.7 58 224.3 87.2 228.7C116.3 233 145.7 241 174.8 242C204 243 233 237 262 233.5C291 230 320 229 349 231.5C378 234 407 240 436.2 239C465.3 238 494.7 230 523.8 230.2C553 230.3 582 238.7 611 239.5C640 240.3 669 233.7 698 228.7C727 223.7 756 220.3 785.2 221.8C814.3 223.3 843.7 229.7 872.8 236C902 242.3 931 248.7 945.5 251.8L960 255L960 301L945.5 301C931 301 902 301 872.8 301C843.7 301 814.3 301 785.2 301C756 301 727 301 698 301C669 301 640 301 611 301C582 301 553 301 523.8 301C494.7 301 465.3 301 436.2 301C407 301 378 301 349 301C320 301 291 301 262 301C233 301 204 301 174.8 301C145.7 301 116.3 301 87.2 301C58 301 29 301 14.5 301L0 301Z" fill="#322929"></path><path d="M0 224L14.5 226.5C29 229 58 234 87.2 240.2C116.3 246.3 145.7 253.7 174.8 253.5C204 253.3 233 245.7 262 241.8C291 238 320 238 349 236.5C378 235 407 232 436.2 233C465.3 234 494.7 239 523.8 240.7C553 242.3 582 240.7 611 242.7C640 244.7 669 250.3 698 253.2C727 256 756 256 785.2 255.2C814.3 254.3 843.7 252.7 872.8 252.3C902 252 931 253 945.5 253.5L960 254L960 301L945.5 301C931 301 902 301 872.8 301C843.7 301 814.3 301 785.2 301C756 301 727 301 698 301C669 301 640 301 611 301C582 301 553 301 523.8 301C494.7 301 465.3 301 436.2 301C407 301 378 301 349 301C320 301 291 301 262 301C233 301 204 301 174.8 301C145.7 301 116.3 301 87.2 301C58 301 29 301 14.5 301L0 301Z" fill="#4e2a2e"></path><path d="M0 242L14.5 245.8C29 249.7 58 257.3 87.2 256.3C116.3 255.3 145.7 245.7 174.8 242.7C204 239.7 233 243.3 262 246.2C291 249 320 251 349 253C378 255 407 257 436.2 258.5C465.3 260 494.7 261 523.8 258.5C553 256 582 250 611 248C640 246 669 248 698 248.5C727 249 756 248 785.2 247.2C814.3 246.3 843.7 245.7 872.8 243.8C902 242 931 239 945.5 237.5L960 236L960 301L945.5 301C931 301 902 301 872.8 301C843.7 301 814.3 301 785.2 301C756 301 727 301 698 301C669 301 640 301 611 301C582 301 553 301 523.8 301C494.7 301 465.3 301 436.2 301C407 301 378 301 349 301C320 301 291 301 262 301C233 301 204 301 174.8 301C145.7 301 116.3 301 87.2 301C58 301 29 301 14.5 301L0 301Z" fill="#682736"></path><path d="M0 268L14.5 264.3C29 260.7 58 253.3 87.2 248.5C116.3 243.7 145.7 241.3 174.8 240.3C204 239.3 233 239.7 262 243C291 246.3 320 252.7 349 254.8C378 257 407 255 436.2 254C465.3 253 494.7 253 523.8 253.5C553 254 582 255 611 255C640 255 669 254 698 252.2C727 250.3 756 247.7 785.2 246.8C814.3 246 843.7 247 872.8 247.5C902 248 931 248 945.5 248L960 248L960 301L945.5 301C931 301 902 301 872.8 301C843.7 301 814.3 301 785.2 301C756 301 727 301 698 301C669 301 640 301 611 301C582 301 553 301 523.8 301C494.7 301 465.3 301 436.2 301C407 301 378 301 349 301C320 301 291 301 262 301C233 301 204 301 174.8 301C145.7 301 116.3 301 87.2 301C58 301 29 301 14.5 301L0 301Z" fill="#822041"></path><path d="M0 275L14.5 274.8C29 274.7 58 274.3 87.2 271.7C116.3 269 145.7 264 174.8 261.8C204 259.7 233 260.3 262 259C291 257.7 320 254.3 349 252.8C378 251.3 407 251.7 436.2 253C465.3 254.3 494.7 256.7 523.8 258.7C553 260.7 582 262.3 611 264.8C640 267.3 669 270.7 698 272C727 273.3 756 272.7 785.2 269.5C814.3 266.3 843.7 260.7 872.8 258.5C902 256.3 931 257.7 945.5 258.3L960 259L960 301L945.5 301C931 301 902 301 872.8 301C843.7 301 814.3 301 785.2 301C756 301 727 301 698 301C669 301 640 301 611 301C582 301 553 301 523.8 301C494.7 301 465.3 301 436.2 301C407 301 378 301 349 301C320 301 291 301 262 301C233 301 204 301 174.8 301C145.7 301 116.3 301 87.2 301C58 301 29 301 14.5 301L0 301Z" fill="#92174a"></path><path d="M0 277L14.5 273.2C29 269.3 58 261.7 87.2 258.3C116.3 255 145.7 256 174.8 258.8C204 261.7 233 266.3 262 268C291 269.7 320 268.3 349 268.7C378 269 407 271 436.2 271.7C465.3 272.3 494.7 271.7 523.8 271.2C553 270.7 582 270.3 611 269.7C640 269 669 268 698 265.7C727 263.3 756 259.7 785.2 261C814.3 262.3 843.7 268.7 872.8 272.3C902 276 931 277 945.5 277.5L960 278L960 301L945.5 301C931 301 902 301 872.8 301C843.7 301 814.3 301 785.2 301C756 301 727 301 698 301C669 301 640 301 611 301C582 301 553 301 523.8 301C494.7 301 465.3 301 436.2 301C407 301 378 301 349 301C320 301 291 301 262 301C233 301 204 301 174.8 301C145.7 301 116.3 301 87.2 301C58 301 29 301 14.5 301L0 301Z" fill="#92174a"></path><path d="M0 280L14.5 280.2C29 280.3 58 280.7 87.2 280.8C116.3 281 145.7 281 174.8 278.3C204 275.7 233 270.3 262 270.2C291 270 320 275 349 274.5C378 274 407 268 436.2 268C465.3 268 494.7 274 523.8 274.8C553 275.7 582 271.3 611 269C640 266.7 669 266.3 698 267.2C727 268 756 270 785.2 269.8C814.3 269.7 843.7 267.3 872.8 267C902 266.7 931 268.3 945.5 269.2L960 270L960 301L945.5 301C931 301 902 301 872.8 301C843.7 301 814.3 301 785.2 301C756 301 727 301 698 301C669 301 640 301 611 301C582 301 553 301 523.8 301C494.7 301 465.3 301 436.2 301C407 301 378 301 349 301C320 301 291 301 262 301C233 301 204 301 174.8 301C145.7 301 116.3 301 87.2 301C58 301 29 301 14.5 301L0 301Z" fill="#822041"></path><path d="M0 278L14.5 278.3C29 278.7 58 279.3 87.2 278.2C116.3 277 145.7 274 174.8 272.8C204 271.7 233 272.3 262 272.5C291 272.7 320 272.3 349 274.5C378 276.7 407 281.3 436.2 284C465.3 286.7 494.7 287.3 523.8 284.7C553 282 582 276 611 274.3C640 272.7 669 275.3 698 275.2C727 275 756 272 785.2 272.2C814.3 272.3 843.7 275.7 872.8 277C902 278.3 931 277.7 945.5 277.3L960 277L960 301L945.5 301C931 301 902 301 872.8 301C843.7 301 814.3 301 785.2 301C756 301 727 301 698 301C669 301 640 301 611 301C582 301 553 301 523.8 301C494.7 301 465.3 301 436.2 301C407 301 378 301 349 301C320 301 291 301 262 301C233 301 204 301 174.8 301C145.7 301 116.3 301 87.2 301C58 301 29 301 14.5 301L0 301Z" fill="#682736"></path><path d="M0 284L14.5 285.5C29 287 58 290 87.2 290.2C116.3 290.3 145.7 287.7 174.8 286.3C204 285 233 285 262 285.3C291 285.7 320 286.3 349 287.5C378 288.7 407 290.3 436.2 290C465.3 289.7 494.7 287.3 523.8 286.5C553 285.7 582 286.3 611 287.2C640 288 669 289 698 287.3C727 285.7 756 281.3 785.2 281.8C814.3 282.3 843.7 287.7 872.8 289.3C902 291 931 289 945.5 288L960 287L960 301L945.5 301C931 301 902 301 872.8 301C843.7 301 814.3 301 785.2 301C756 301 727 301 698 301C669 301 640 301 611 301C582 301 553 301 523.8 301C494.7 301 465.3 301 436.2 301C407 301 378 301 349 301C320 301 291 301 262 301C233 301 204 301 174.8 301C145.7 301 116.3 301 87.2 301C58 301 29 301 14.5 301L0 301Z" fill="#4e2a2e"></path><path d="M0 293L14.5 291.7C29 290.3 58 287.7 87.2 288.2C116.3 288.7 145.7 292.3 174.8 293.7C204 295 233 294 262 292.5C291 291 320 289 349 287.8C378 286.7 407 286.3 436.2 288C465.3 289.7 494.7 293.3 523.8 294C553 294.7 582 292.3 611 290.7C640 289 669 288 698 287.2C727 286.3 756 285.7 785.2 285.3C814.3 285 843.7 285 872.8 286C902 287 931 289 945.5 290L960 291L960 301L945.5 301C931 301 902 301 872.8 301C843.7 301 814.3 301 785.2 301C756 301 727 301 698 301C669 301 640 301 611 301C582 301 553 301 523.8 301C494.7 301 465.3 301 436.2 301C407 301 378 301 349 301C320 301 291 301 262 301C233 301 204 301 174.8 301C145.7 301 116.3 301 87.2 301C58 301 29 301 14.5 301L0 301Z" fill="#322929"></path></svg>